<svg height="464pt" viewBox="0 -112 464 464" width="464pt" xmlns="http://www.w3.org/2000/svg"><path d="m368 88h32v64h-32zm0 0"/><path d="m276.609375 0h-154.265625c-28.078125 0-53.640625 15.441406-66.71875 40.28125l-46.953125 89.214844c-5.671875 10.785156-8.671875 22.9375-8.671875 35.113281 0 41.566406 33.824219 75.390625 75.390625 75.390625h201.21875c41.566406 0 75.390625-33.824219 75.390625-75.390625v-89.21875c0-41.566406-33.824219-75.390625-75.390625-75.390625zm-175 181.703125-11.21875-11.40625 113.839844-112 11.21875 11.40625zm180.734375-123.359375 11.3125 11.3125-112 112-11.3125-11.3125zm-58.34375 165.65625h-148.609375c-32.75 0-59.390625-26.640625-59.390625-59.390625 0-9.585937 2.359375-19.160156 6.832031-27.671875l46.960938-89.203125c8.328125-15.832031 23.222656-26.925781 40.863281-30.460937l3.144531 15.6875c-12.898437 2.574218-23.777343 10.679687-29.847656 22.222656l-46.960937 89.199218c-3.265626 6.21875-4.992188 13.21875-4.992188 20.226563 0 23.917969 19.472656 43.390625 43.390625 43.390625h148.609375zm112-59.390625c0 32.75-26.640625 59.390625-59.390625 59.390625h-36.609375v-16h36.609375c23.917969 0 43.390625-19.472656 43.390625-43.390625v-89.21875c0-23.917969-19.472656-43.390625-43.390625-43.390625h-148.609375v-16h148.609375c32.75 0 59.390625 26.640625 59.390625 59.390625zm0 0"/><path d="m416 64v112c0 28.167969 20.894531 51.535156 48 55.433594v-222.859375c-27.105469 3.890625-48 27.265625-48 55.425781zm32 136h-16v-16h16zm0-32h-16v-96h16zm0-112h-16v-16h16zm0 0"/></svg>