<svg height="496pt" viewBox="0 -40 496 496" width="496pt" xmlns="http://www.w3.org/2000/svg"><path d="m422.367188 192h-348.734376c-11.863281 0-22.089843 8.855469-23.769531 20.609375l-17.785156 124.917969-.078125 1.128906c0 7.359375 5.984375 13.34375 13.34375 13.34375h405.3125c3.535156 0 6.839844-1.382812 9.3125-3.878906 2.625-2.664063 4.03125-6.335938 3.976562-10.335938l-17.816406-125.167968c-1.671875-11.761719-11.890625-20.617188-23.761718-20.617188zm-373.902344 144 17.246094-121.136719c.554687-3.910156 3.960937-6.863281 7.921874-6.863281h348.734376c3.960937 0 7.367187 2.953125 7.921874 6.871094l17.304688 121.128906zm0 0"/><path d="m495.542969 332.238281-17.726563-124.160156c-3.921875-27.40625-27.761718-48.078125-55.449218-48.078125h-142.367188v-48.414062c13.542969-2.019532 24-13.617188 24-27.714844 0-1.398438-.183594-2.78125-.390625-4.160156 39.511719-2.710938 75.527344-25.070313 95.335937-59.75l1.054688-1.832032v-18.128906h-304v18.128906l1.054688 1.839844c19.808593 34.671875 55.824218 57.039062 95.335937 59.75-.207031 1.378906-.390625 2.753906-.390625 4.152344 0 14.097656 10.457031 25.6875 24 27.714844v48.414062h-142.367188c-27.6875 0-51.519531 20.671875-55.449218 48.078125l-17.726563 124.160156c-.304687 2.128907-.457031 4.273438-.457031 6.417969 0 25 20.34375 45.34375 45.34375 45.34375h109.710938l16 32h153.890624l16-32h109.710938c25 0 45.34375-20.34375 45.34375-45.34375 0-2.144531-.152344-4.289062-.457031-6.417969zm-297.695313-268.40625c-34.359375-.894531-66.175781-18.855469-84.511718-47.832031h269.328124c-18.335937 28.976562-50.152343 46.9375-84.511718 47.832031l-5.664063-14.152343c-4.296875-10.742188-14.542969-17.679688-26.113281-17.679688h-36.75c-11.570312 0-21.824219 6.9375-26.121094 17.679688zm10.152344 20.039063c0-1.535156.296875-3.0625.863281-4.503906l9.503907-23.75c1.847656-4.625 6.265624-7.617188 11.257812-7.617188h36.75c4.992188 0 9.410156 2.992188 11.257812 7.617188l9.496094 23.734374c.574219 1.464844.871094 2.984376.871094 4.519532 0 6.6875-5.441406 12.128906-12.128906 12.128906h-55.75c-6.679688 0-12.121094-5.441406-12.121094-12.128906zm24 28.128906h32v48h-32zm83.054688 288h-134.109376l-8-16h150.109376zm135.601562-32h-405.3125c-16.175781 0-29.34375-13.167969-29.34375-29.34375 0-1.390625.105469-2.777344.296875-4.152344l17.734375-124.167968c2.800781-19.566407 19.824219-34.335938 39.601562-34.335938h348.734376c19.777343 0 36.808593 14.769531 39.601562 34.34375l17.734375 124.167969c.191406 1.367187.296875 2.753906.296875 4.144531 0 16.175781-13.167969 29.34375-29.34375 29.34375zm0 0"/><path d="m337.359375 315.546875 64-96.007813 13.3125 8.878907-64 96.003906zm0 0"/><path d="m273.359375 315.546875 64-96.003906 13.3125 8.875-64 96.003906zm0 0"/><path d="m209.359375 315.550781 64-96.003906 13.3125 8.875-64 96.003906zm0 0"/><path d="m145.359375 315.554688 64-96.003907 13.3125 8.875-64 96.003907zm0 0"/><path d="m81.359375 315.558594 64-96.003906 13.3125 8.875-64 96.003906zm0 0"/></svg>