<?xml version="1.0" encoding="iso-8859-1"?>
<!-- Generator: Adobe Illustrator 19.0.0, SVG Export Plug-In . SVG Version: 6.00 Build 0)  -->
<svg version="1.1" id="Capa_1" xmlns="http://www.w3.org/2000/svg" xmlns:xlink="http://www.w3.org/1999/xlink" x="0px" y="0px"
	 viewBox="0 0 480 480" style="enable-background:new 0 0 480 480;" xml:space="preserve">
<g>
	<g>
		<path d="M472,279.98c-27.03,0.088-51.797-15.081-64-39.2c0-0.256,0-0.496,0-0.76c0-96.6-61.232-152-168-152
			C140.344,87.98,0,135.18,0,239.98s140.344,152,240,152h232c4.418,0,8-3.582,8-8v-96C480,283.562,476.418,279.98,472,279.98z
			 M16,239.98c0-92.8,133.664-136,224-136c98.016,0,152,48.304,152,136s-53.984,136-152,136C149.664,375.98,16,332.78,16,239.98z
			 M464,375.98H326.688c45.24-19.744,72.712-57.376,79.496-109.744c14.879,16.731,35.53,27.223,57.816,29.376V375.98z"/>
	</g>
</g>
<g>
	<g>
		<path d="M234.128,119.98C150.192,119.98,32,157.212,32,239.98s118.192,120,202.128,120c90.16,0,141.872-43.736,141.872-120
			C376,163.716,324.288,119.98,234.128,119.98z M234.128,343.98C159.064,343.98,48,310.924,48,239.98
			c0-70.944,111.064-104,186.128-104c47.008,0,125.872,13.512,125.872,104S281.136,343.98,234.128,343.98z"/>
	</g>
</g>
<g>
</g>
<g>
</g>
<g>
</g>
<g>
</g>
<g>
</g>
<g>
</g>
<g>
</g>
<g>
</g>
<g>
</g>
<g>
</g>
<g>
</g>
<g>
</g>
<g>
</g>
<g>
</g>
<g>
</g>
</svg>
