<svg height="496pt" viewBox="0 -112 496 496" width="496pt" xmlns="http://www.w3.org/2000/svg"><path d="m488 8c-39.695312 0-72 32.304688-72 72v8h-32.167969c-1.808593-48.816406-41.976562-88-91.222656-88h-154.265625c-34.03125 0-65.023438 18.710938-80.871094 48.832031l-46.953125 89.207031c-6.878906 13.074219-10.519531 27.792969-10.519531 42.570313 0 50.390625 41 91.390625 91.390625 91.390625h201.210937c49.246094 0 89.414063-39.183594 91.222657-88h32.175781v8c0 39.703125 32.304688 72 72 72h8v-256zm-120 172.609375c0 41.566406-33.824219 75.390625-75.390625 75.390625h-201.21875c-41.566406 0-75.390625-33.824219-75.390625-75.390625 0-12.183594 3-24.335937 8.671875-35.121094l46.953125-89.207031c13.078125-24.847656 38.640625-40.28125 66.71875-40.28125h154.257812c41.574219 0 75.398438 33.824219 75.398438 75.390625zm16-12.609375v-64h32v64zm96 79.433594c-27.105469-3.890625-48-27.265625-48-55.433594v-112c0-28.167969 20.894531-51.535156 48-55.433594zm0 0"/><path d="m448 56h16v16h-16zm0 0"/><path d="m448 88h16v96h-16zm0 0"/><path d="m448 200h16v16h-16zm0 0"/><path d="m186.34375 186.339844 112-112 11.3125 11.316406-112 111.996094zm0 0"/><path d="m106.375 186.28125 113.851562-111.984375 11.21875 11.40625-113.851562 111.984375zm0 0"/><path d="m292.609375 32h-148.609375v16h148.609375c23.925781 0 43.390625 19.464844 43.390625 43.390625v89.21875c0 23.917969-19.464844 43.390625-43.390625 43.390625h-36.609375v16h36.609375c32.75 0 59.390625-26.640625 59.390625-59.390625v-89.21875c0-32.75-26.640625-59.390625-59.390625-59.390625zm0 0"/><path d="m48 180.609375c0-7.007813 1.726562-14.007813 4.992188-20.226563l46.953124-89.191406c6.078126-11.542968 16.957032-19.648437 29.847657-22.222656l-3.144531-15.6875c-17.640626 3.527344-32.535157 14.628906-40.863282 30.460938l-46.960937 89.203124c-4.464844 8.511719-6.824219 18.078126-6.824219 27.664063 0 32.75 26.640625 59.390625 59.390625 59.390625h148.609375v-16h-148.609375c-23.925781 0-43.390625-19.472656-43.390625-43.390625zm0 0"/></svg>